<svg viewBox="0 0 544 440" fill="none" xmlns="http://www.w3.org/2000/svg"><path d="M37.378 104.539l.003-.005c21.393-32.055 52.64-57.074 93.001-74.16l.004-.002C169.887 13.607 217.923 5 273.146 5c55.213 0 102.257 8.604 141.541 25.368 40.083 17.138 70.997 42.095 92.116 74.193 21.113 32.089 31.904 70.826 31.904 115.439s-10.791 83.349-31.904 115.439c-21.119 32.099-52.035 57.057-92.119 74.194C375.347 426.396 327.754 435 273.146 435c-54.62 0-103.26-8.608-142.814-25.371-40.368-17.144-71.615-42.111-93.006-74.163C15.95 303.437 5 264.602 5 220c0-44.656 10.95-83.435 32.378-115.461z" fill="#fff" stroke="#E0320B" stroke-width="10"/><path fill-rule="evenodd" clip-rule="evenodd" d="M225.18 370.05c-8.912-4.628-19.888-1.155-24.516 7.756-9.36 18.025-19.598 33.034-29.756 45.441l38.915 9c7.981-11.087 15.801-23.6 23.114-37.681 4.627-8.912 1.155-19.888-7.757-24.516z" fill="#E0320B"/><path d="M158.326 216.451c15.36-20.2 42.868-3.7 50.66 20.201 7.811 23.975 20.986 22.798 25.695 22.461 2.074-.149 5.811-.934 7.661-1.887 4.41-2.242 13.623-7.662 22.406-17.622 0 0 24.424-26.46 47.465-37 23.097-10.577 40.046-.654 46.511 17.23l-2.41 1.793c6.97-.766 12.445-.373 16.015.169 4.877.747 9.399 3.158 12.408 7.082 3.382 4.391 5.905 11.567 2.485 22.667l-4.41.523c10.913 2.093 15.379 9.101 15.641 14.67.43 9.138-.224 24.386-33.749 32.87-18.462 4.672-32.758 14.352-41.858 22.125-5.513 4.691-10.334 10.11-14.539 15.996-6.783 9.493-23.919 30.535-44.512 33.525 0 0 .336 20.574-22.686 21.49-12.632.504-23.975-5.363-31.656-10.783-10.278-7.25-15.323-20.069-12.034-32.197 2.111-7.811 7.475-16.463 19.191-24.2l.169.168c.037-.112.056-.243.093-.355l-.262.187s-34.813 3.999-30.011-35.561c0 0 5.718-25.994-14.501-37.748 0 0-29.899-14.613-13.791-35.841l.019.037z" fill="#fff"/><path d="M216.614 325.582s-34.814 3.999-30.012-35.561c0 0 5.719-25.994-14.501-37.748 0 0-29.899-14.613-13.791-35.841 15.361-20.201 42.868-3.7 50.661 20.2 7.811 23.976 20.985 22.798 25.694 22.462 2.074-.15 5.812-.934 7.662-1.887 4.41-2.243 13.623-7.662 22.405-17.622 0 0 24.424-26.461 47.465-37 23.097-10.577 40.046-.654 46.512 17.229" stroke="#E0320B" stroke-width="13.485" stroke-linecap="round" stroke-linejoin="round"/><path d="M288.677 263.47s22.013-27.433 47.11-36.814c17.024-6.372 29.974-5.83 36.552-4.84 4.877.748 9.399 3.159 12.408 7.083 3.382 4.391 5.905 11.567 2.485 22.667" stroke="#E0320B" stroke-width="13.485" stroke-linecap="round" stroke-linejoin="round"/><path d="M302.442 290.471s17.641-23.303 50.735-34.627c33.095-11.325 44.849 1.738 45.297 10.894.449 9.157-.224 24.387-33.748 32.87-18.463 4.672-32.759 14.352-41.859 22.126-5.513 4.69-10.334 10.109-14.539 15.996-6.783 9.493-23.919 30.534-44.512 33.524-26.722 3.887-49.352-11.847-48.698-34.701.654-22.855 17.883-33.413 17.883-33.413" stroke="#E0320B" stroke-width="13.485" stroke-linecap="round" stroke-linejoin="round"/><path d="M263.802 371.274s.337 20.574-22.685 21.489c-12.633.505-23.976-5.363-31.656-10.782-10.278-7.25-15.323-20.07-12.035-32.197 2.112-7.812 7.475-16.464 19.192-24.2M275.813 259.806s33.375 8.278 26.181 52.118" stroke="#E0320B" stroke-width="13.485" stroke-linecap="round" stroke-linejoin="round"/><path d="M152.888 101.799c2.021 2.023 4.424 3.607 7.198 4.752l.019-.01a22.108 22.108 0 008.571 1.727c3.261 0 6.112-.62 8.571-1.86 2.46-1.241 4.348-2.949 5.683-5.134 1.325-2.175 1.992-4.6 1.992-7.404 0-2.806-.696-5.096-2.069-6.861-1.382-1.765-3.041-3.12-4.995-4.065-1.945-.935-4.51-1.937-7.675-2.996l-1.45-.487c-2.66-.868-4.843-1.689-6.54-2.442-1.697-.754-3.108-1.66-4.233-2.72-1.125-1.059-1.687-2.3-1.687-3.721 0-1.832 1.029-3.235 3.098-4.199 2.069-.963 4.958-1.45 8.676-1.45 2.803 0 5.454.286 7.951.859 2.508.572 4.605 1.364 6.302 2.376v-6.412c-1.878-1.699-4.137-3.035-6.778-4.027-2.641-.983-5.339-1.479-8.095-1.479-3.022 0-5.663.563-7.913 1.689-2.25 1.126-3.976 2.69-5.167 4.685-1.192 2.004-1.793 4.313-1.793 6.927 0 2.796.658 5.058 1.993 6.785 1.335 1.727 2.965 3.034 4.891 3.93 1.926.898 4.538 1.852 7.846 2.864l.963.343.753.21c2.527.83 4.615 1.622 6.264 2.376 1.65.754 3.004 1.68 4.062 2.786 1.058 1.107 1.582 2.414 1.582 3.931 0 2.204-1.144 3.903-3.441 5.096-2.298 1.192-5.416 1.794-9.363 1.794-2.66 0-5.329-.382-8.018-1.136-2.688-.763-5.091-1.803-7.198-3.14v6.413zM197.719 57.277h-3.995l-.009.01v50.304h3.995V87.887c0-3.54 1.01-6.374 3.031-8.511 2.012-2.138 4.748-3.206 8.19-3.206 2.164 0 3.995.41 5.511 1.24 1.516.82 2.66 2.013 3.442 3.578.781 1.565 1.172 3.426 1.172 5.582v21.021h3.995v-21.02c0-3.856-.515-7.186-1.544-9.991-1.03-2.805-2.517-4.943-4.472-6.412-1.954-1.47-4.281-2.204-6.988-2.204-2.985 0-5.502.982-7.542 2.958-2.04 1.975-3.546 4.818-4.509 8.54h-.277V57.276z" fill="#E0320B"/><path fill-rule="evenodd" clip-rule="evenodd" d="M233.032 77.229c1.287-3.006 3.137-5.305 5.54-6.89 2.412-1.583 5.291-2.375 8.638-2.375 3.346 0 6.235.792 8.637 2.376 2.412 1.584 4.253 3.883 5.54 6.889 1.287 3.005 1.925 6.603 1.925 10.782 0 4.18-.638 7.853-1.925 10.887-1.287 3.035-3.137 5.353-5.54 6.956-2.412 1.613-5.291 2.414-8.637 2.414-3.347 0-6.236-.801-8.638-2.414-2.412-1.612-4.262-3.931-5.54-6.956-1.287-3.034-1.925-6.66-1.925-10.887s.638-7.777 1.925-10.782zm4.72 19.675c2.269 2.118 5.425 3.168 9.467 3.168 4.042 0 7.198-1.06 9.467-3.168 2.269-2.109 3.404-5.076 3.404-8.893 0-3.817-1.135-6.622-3.404-8.721-2.269-2.09-5.425-3.14-9.467-3.14-4.042 0-7.198 1.05-9.467 3.14s-3.413 5-3.413 8.721 1.134 6.775 3.413 8.893z" fill="#E0320B"/><path d="M275.383 68.65h-2.965v38.941h3.994v-19.78c.048-2.624.477-4.838 1.306-6.651.83-1.813 2.022-3.206 3.585-4.17 1.554-.963 3.442-1.45 5.644-1.45 2.622 0 5.168.582 7.647 1.727v-8.13a13.95 13.95 0 00-5.644-1.173c-3.08 0-5.74.925-7.99 2.786-2.25 1.86-3.88 4.494-4.891 7.89h-.276l-.41-9.99zM310.751 72.782h-11.698V70.09c2.479-.324 4.605-1.03 6.369-2.137 1.763-1.107 3.232-2.596 4.404-4.475 1.173-1.88 2.098-4.18 2.784-6.89h2.136V68.65h12.184v4.132h-12.184v34.799h-3.995v-34.8z" fill="#E0320B"/><path fill-rule="evenodd" clip-rule="evenodd" d="M332.003 99.07c1.353 2.968 3.232 5.239 5.644 6.822l-.01-.009c2.412 1.584 5.177 2.376 8.295 2.376 2.526 0 5.005-.515 7.436-1.546 2.441-1.03 4.567-2.538 6.407-4.513v-5.716c-1.697 1.24-3.67 2.214-5.92 2.93a22.553 22.553 0 01-6.884 1.068c-4.271 0-7.637-1.059-10.087-3.168-2.15-1.85-3.36-4.31-3.625-7.366h24.733l2.346-3.034c0-3.817-.601-7.157-1.793-10.029-1.201-2.872-2.879-5.076-5.062-6.612-2.184-1.536-4.72-2.31-7.608-2.31-3.299 0-6.15.812-8.533 2.443-2.384 1.632-4.214 3.998-5.473 7.1-1.268 3.1-1.897 6.812-1.897 11.125 0 3.998.677 7.481 2.031 10.439zm1.38-13.12h24.005c-.239-2.921-1.299-5.252-3.181-6.994-2.154-1.994-5.119-2.996-8.885-2.996s-6.779 1.116-8.915 3.34c-1.63 1.704-2.639 3.921-3.024 6.65z" fill="#E0320B"/><path d="M369.767 68.65h2.965l.41 9.99h.276c1.011-3.396 2.641-6.03 4.891-7.89 2.25-1.86 4.91-2.786 7.99-2.786 1.973 0 3.851.39 5.644 1.173v8.13c-2.479-1.145-5.025-1.727-7.647-1.727-2.202 0-4.09.486-5.644 1.45-1.563.964-2.755 2.357-3.584 4.17-.83 1.813-1.259 4.027-1.307 6.65v19.781h-3.994v-38.94z" fill="#E0320B"/><path fill-rule="evenodd" clip-rule="evenodd" d="M162.745 118.325c-3.49 2.071-6.159 5.057-7.99 8.96v-.01c-1.84 3.912-2.755 8.502-2.755 13.922s.915 10.086 2.755 13.988c1.84 3.903 4.5 6.889 7.99 8.96 3.489 2.071 7.684 3.101 12.461 3.101 4.776 0 8.905-1.03 12.394-3.101 3.49-2.071 6.15-5.057 7.99-8.96 1.84-3.902 2.755-8.568 2.755-13.988s-.925-10.067-2.755-13.95c-1.84-3.884-4.5-6.851-7.99-8.922-3.489-2.071-7.579-3.101-12.394-3.101s-8.972 1.03-12.461 3.101zm12.461 36.04c-5.282 0-9.391-1.164-12.328-3.483v.009c-2.936-2.318-4.404-5.553-4.404-9.685 0-4.131 1.468-7.347 4.404-9.646 2.937-2.3 7.046-3.445 12.328-3.445 3.489 0 6.473.515 8.952 1.546 2.479 1.03 4.376 2.538 5.683 4.513 1.306 1.975 1.964 4.275 1.964 7.032 0 2.758-.658 5.124-1.964 7.1-1.307 1.975-3.204 3.482-5.683 4.513-2.479 1.03-5.463 1.546-8.952 1.546zM207.444 116.264h18.915c6.426 0 11.298 1.469 14.635 4.408 3.327 2.939 4.996 7.147 4.996 12.615 0 3.444-.744 6.421-2.241 8.921-1.487 2.5-3.661 4.447-6.502 5.821-1.484.715-3.119 1.246-4.91 1.592l14.882 16.948h-9.362l-13.843-16.47h-9.687v16.47h-6.883v-50.305zM233.691 138c1.954-.391 3.413-.954 4.376-1.689.963-.734 1.449-1.698 1.449-2.891 0-1.192-.486-2.108-1.449-2.891-.963-.782-2.412-1.364-4.338-1.756-1.926-.391-4.386-.582-7.37-.582h-12.051v10.401h12.051c2.937 0 5.377-.191 7.332-.582V138zM273.922 116.264h-18.171v50.295h18.171c4.815 0 8.934-.983 12.357-2.958 3.422-1.975 6.016-4.837 7.779-8.578 1.764-3.74 2.651-8.206 2.651-13.54s-.887-9.876-2.651-13.645c-1.763-3.769-4.357-6.641-7.779-8.616-3.414-1.965-7.532-2.958-12.357-2.958zm-11.288 38.034h11.288c3.585 0 6.588-.487 9.02-1.45 2.431-.964 4.252-2.395 5.472-4.304 1.211-1.908 1.821-4.284 1.821-7.128 0-2.843-.61-5.228-1.821-7.127-1.22-1.909-3.041-3.34-5.472-4.304-2.432-.963-5.444-1.45-9.02-1.45h-11.288v25.763z" fill="#E0320B"/><path d="M305.807 116.264h34.971v11.784h-28.364v7.929h26.781v10.201h-26.781v8.616h29.26v11.784h-35.867v-50.314z" fill="#E0320B"/><path fill-rule="evenodd" clip-rule="evenodd" d="M371.14 116.264h-18.916v50.305h6.884v-16.47h9.687l13.843 16.47H392l-14.882-16.948c1.79-.346 3.426-.877 4.909-1.592 2.842-1.374 5.015-3.321 6.503-5.821 1.496-2.5 2.24-5.477 2.24-8.921 0-5.468-1.668-9.676-4.996-12.615-3.337-2.939-8.208-4.408-14.634-4.408zm11.707 20.047c-.963.735-2.421 1.298-4.376 1.689v.01c-1.954.391-4.395.582-7.331.582h-12.051v-10.401h12.051c2.984 0 5.443.191 7.369.582 1.926.392 3.375.974 4.338 1.756.963.783 1.45 1.699 1.45 2.891 0 1.193-.487 2.157-1.45 2.891z" fill="#E0320B"/></svg>