<svg viewBox="0 0 500 440" fill="none" xmlns="http://www.w3.org/2000/svg"><path d="M224.195 319.407l77.313 84.259s-15.843-13.618-33.284-6.144c-17.441 7.473-21.676 32.783-21.676 32.783L346.5 425 242.698 324.146" fill="#fff"/><path d="M224.195 319.407l77.313 84.259s-15.843-13.618-33.284-6.144c-17.441 7.473-21.676 32.783-21.676 32.783L346.5 425 242.698 324.146" stroke="#E0320B" stroke-width="5.019" stroke-linecap="round" stroke-linejoin="round"/><path d="M34.712 130.51l.003-.005c19.627-29.523 48.298-52.572 85.349-68.319l.004-.002c36.262-15.45 80.379-23.39 131.121-23.39 50.729 0 93.933 7.936 129.995 23.385 36.797 15.794 65.163 38.786 84.538 68.349C485.091 160.082 495 195.771 495 236.897c0 41.127-9.909 76.815-29.278 106.369-19.374 29.561-47.738 52.553-84.532 68.347C345.077 427.062 301.366 435 251.189 435c-50.19 0-94.862-7.941-131.174-23.391-37.056-15.8-65.727-38.801-85.35-68.32C15.055 313.791 5 278.012 5 236.897c0-41.165 10.055-76.891 29.712-106.387z" stroke="#E0320B" stroke-width="10"/><path d="M117.129 116.131l12.189 11.757-3.85-16.504-3.022-12.957 13.215 1.838 16.807 2.337-12.845-11.081-10.073-8.69 11.767-6.253 15.045-7.994-16.963-1.408-13.268-1.1 5.857-11.965 7.468-15.254-14.534 8.778-11.431 6.904-2.295-13.117-2.924-16.723-6.604 15.653-5.186 12.294-9.594-9.255-12.189-11.758 3.85 16.505 3.02 12.953-13.19-1.839-16.79-2.342 12.823 11.083 10.061 8.695L62.7 82.944l-15.017 7.978 16.93 1.423 13.28 1.116-5.86 11.971-7.481 15.283 14.552-8.809 11.424-6.916 2.292 13.11 2.925 16.722 6.603-15.652 5.187-12.294 9.594 9.255z" fill="#E0320B" stroke="#F1ECE3" stroke-width="10"/><path fill-rule="evenodd" clip-rule="evenodd" d="M108.89 183.138a6.21 6.21 0 018.39 2.665c6.823 13.189 15.009 21.68 21.387 26.84 3.194 2.584 5.94 4.336 7.837 5.421.948.543 1.683.918 2.154 1.146l-4.155 11.825a28.55 28.55 0 01-1.258-.574 48.1 48.1 0 01-2.903-1.541c-2.413-1.381-5.719-3.502-9.484-6.548-7.541-6.101-16.908-15.896-24.623-30.811-1.584-3.062-.396-6.833 2.655-8.423z" fill="#E0320B"/><path d="M131.771 130.363c-5.257-6.941-14.672-1.272-17.339 6.94-2.673 8.238-7.182 7.834-8.794 7.718-.71-.051-1.989-.321-2.622-.648-1.51-.771-4.663-2.633-7.669-6.055 0 0-8.359-9.092-16.245-12.713-7.905-3.634-13.706-.225-15.92 5.92l.826.616c-2.386-.263-4.26-.128-5.481.058-1.67.257-3.217 1.085-4.247 2.433-1.158 1.509-2.021 3.975-.85 7.789l1.509.18c-3.736.719-5.264 3.126-5.354 5.04-.147 3.14.077 8.379 11.551 11.294 6.32 1.605 11.212 4.931 14.327 7.602 1.887 1.612 3.537 3.474 4.976 5.496 2.321 3.262 8.186 10.492 15.235 11.519 0 0-.116 7.069 7.764 7.384 4.324.173 8.206-1.843 10.834-3.705 3.518-2.491 5.245-6.896 4.119-11.063-.722-2.684-2.558-5.657-6.568-8.315l-.058.058c-.012-.039-.019-.083-.032-.122l.09.064s11.915 1.374 10.272-12.218c0 0-1.958-8.932 4.963-12.97 0 0 10.233-5.021 4.72-12.315l-.007.013z" fill="#fff"/><path d="M111.821 167.859s11.916 1.374 10.272-12.218c0 0-1.957-8.932 4.963-12.97 0 0 10.233-5.021 4.72-12.315-5.257-6.941-14.672-1.271-17.339 6.941-2.673 8.237-7.182 7.833-8.794 7.717-.71-.051-1.989-.321-2.622-.648-1.51-.771-4.663-2.633-7.669-6.055 0 0-8.36-9.092-16.245-12.713-7.906-3.634-13.707-.225-15.92 5.92" stroke="#E0320B" stroke-width="5.019" stroke-linecap="round" stroke-linejoin="round"/><path d="M87.158 146.518s-7.535-9.426-16.124-12.649c-5.827-2.189-10.26-2.003-12.51-1.663-1.67.257-3.218 1.085-4.247 2.434-1.158 1.509-2.021 3.974-.85 7.788" stroke="#E0320B" stroke-width="5.019" stroke-linecap="round" stroke-linejoin="round"/><path d="M82.445 155.795s-6.038-8.007-17.365-11.898c-11.327-3.89-15.35.598-15.503 3.744-.154 3.146.077 8.379 11.55 11.294 6.32 1.605 11.213 4.931 14.327 7.602 1.887 1.612 3.537 3.474 4.976 5.496 2.322 3.262 8.187 10.491 15.235 11.519 9.146 1.335 16.891-4.071 16.668-11.923-.224-7.853-6.121-11.481-6.121-11.481" stroke="#E0320B" stroke-width="5.019" stroke-linecap="round" stroke-linejoin="round"/><path d="M95.67 183.558s-.115 7.07 7.765 7.384c4.323.174 8.205-1.842 10.834-3.704 3.518-2.492 5.245-6.896 4.119-11.063-.723-2.684-2.558-5.657-6.569-8.315M91.56 145.259s-11.423 2.844-8.96 17.907" stroke="#E0320B" stroke-width="5.019" stroke-linecap="round" stroke-linejoin="round"/><path d="M179.768 90.387l18.388 8.591 14.173-16.206 13.073 15.365 17.3-6.472 11.679 14.729 18.049-5.907 11.461 14.999 17.269-6.331 10.962 13.387 17.627-6.555 11.769 14.755 17.025-7.423 10.387 14.196-19.699 17.484-19.859-9.849-10.029-13.715-16.45 7.166-11.365-14.254-17.026 6.337-10.591-12.932-16.68 6.113-11.078-14.485-17.435 5.708-11.282-14.235-16.712 6.254-10.956-16.72z" fill="#E0320B"/><path d="M228.875 394.806c-9.926-17.118-24.144-30.024-37.319-33.305-16.616-4.147-28.033 9.811-28.506 10.408-.019.02-.026.045-.039.065-2.404 2.895-.697 8.18 5.373 16.61 5.244 7.288 13.137 15.93 22.225 24.341 8.935 8.27 17.953 15.191 25.398 19.487 5.341 3.082 9.447 4.61 12.408 4.61 1.669 0 2.968-.488 3.914-1.464.032-.026.058-.058.083-.084.007-.006.02-.012.026-.025.019-.019.032-.045.051-.064.045-.058.09-.11.134-.174.314-.391.557-.822.723-1.297l52.045-100.389-10.994-2.299-45.522 63.58z" fill="#fff"/><path d="M164.789 373.315s10.803-13.477 26.223-9.637c15.42 3.846 31.582 21.246 40.626 41.42M228.686 399.082l45.109-67.623" stroke="#E0320B" stroke-width="5.019" stroke-linecap="round" stroke-linejoin="round"/><path d="M164.791 373.315c3.466-3.775 21.33 7.095 39.89 24.277 18.561 17.182 29.575 32.559 26.102 36.335-3.467 3.775-20.102-5.471-38.669-22.659-18.561-17.188-30.803-34.177-27.33-37.953h.007zM230.789 433.927l54.684-100.246M329.372 145.149l19.859 9.856 19.693-17.483s-6.844 33.94-7.675 39.66c-10.72 73.697 2.149 118.141 4.72 136.428 0 0-1.925 4.815-5.379 8.192-17.659 17.272-25.871 17.998-25.871 17.998-45.186-.886-130.462-26.088-143.368-29.703-12.901-3.614-29.914-10.356-34.698-17.258-4.784-6.903-7.943-30.101-7.943-30.101-2.693-17.849-2.763-38.299-1.145-58.069 2.373-29.04 9.171-62.043 20.786-88.747l11.41-25.535 10.963 16.726 16.712-6.254 11.282 14.229 17.435-5.708 11.078 14.491 16.68-6.112 10.591 12.931 17.026-6.337 11.372 14.254 16.45-7.166 10.028 13.708c-34.857 140.312 5.347 194.651 5.347 194.651" stroke="#E0320B" stroke-width="5.019" stroke-linecap="round" stroke-linejoin="round"/><path d="M361.255 177.176c.832-5.721 7.675-39.661 7.675-39.661l-19.693 17.484-19.859-9.856-10.028-13.708-16.45 7.165-11.372-14.254-17.026 6.338-10.591-12.932-16.68 6.113-11.078-14.492-17.435 5.708-11.282-14.228-16.712 6.254-10.963-16.726-11.41 25.535c-11.615 26.704-18.413 59.706-20.786 88.747-1.618 19.769-1.548 40.226 1.145 58.069 0 0 3.159 23.198 7.943 30.1 4.784 6.903 21.791 13.638 34.698 17.259 12.9 3.615 98.182 28.816 143.368 29.702 0 0 8.206-.732 25.871-17.997 3.454-3.377 5.379-8.193 5.379-8.193-2.571-18.286-15.44-62.73-4.72-136.427h.006z" fill="#E0320B" fill-opacity=".25"/><path d="M277.57 192.053c3.382-20.845-1.932-39.061-11.868-40.685-9.936-1.625-20.732 13.957-24.114 34.803-3.382 20.845 1.932 39.061 11.868 40.685 9.936 1.625 20.732-13.957 24.114-34.803z" fill="#fff" stroke="#E0320B" stroke-width="5.019" stroke-linecap="round" stroke-linejoin="round"/><path d="M260.226 195.739c.895-10.978-2.62-20.225-7.852-20.655-5.231-.43-10.198 8.121-11.093 19.098-.895 10.977 2.62 20.225 7.852 20.655 5.231.43 10.198-8.121 11.093-19.098z" fill="#E0320B"/><path d="M224.668 177.546c3.382-20.846-1.932-39.061-11.868-40.686-9.936-1.624-20.732 13.958-24.114 34.803-3.382 20.846 1.931 39.062 11.868 40.686 9.936 1.625 20.732-13.957 24.114-34.803z" fill="#fff" stroke="#E0320B" stroke-width="5.019" stroke-linecap="round" stroke-linejoin="round"/><path d="M207.329 181.231c.896-10.977-2.62-20.225-7.851-20.655-5.232-.43-10.198 8.121-11.094 19.098-.895 10.977 2.621 20.225 7.852 20.655 5.232.43 10.198-8.121 11.093-19.098z" fill="#E0320B"/><path d="M271.472 244.407s-52.081 29.388-90.731-22.376c0 0-10.418 40.393 37.179 53.144 1.196.322 4.669.784 5.903.854 10.931.61 30.688.752 50.655-24.43" fill="#fff"/><path d="M271.472 244.407s-52.081 29.388-90.731-22.376c0 0-10.418 40.393 37.179 53.144 1.196.322 4.669.784 5.903.854 10.931.61 30.688.752 50.655-24.43" stroke="#E0320B" stroke-width="5.019" stroke-linecap="round" stroke-linejoin="round"/><path d="M267.447 235.675c6.166 4.07 9.037 11.666 9.779 18.754.48 4.168.122 8.469-.626 12.572-.25 1.349-2.245 1.182-2.258-.192.051-3.326.109-6.704-.282-10.004l-.089-.976c-.102-.597-.371-2.266-.467-2.889-.863-4.064-2.264-8.058-4.586-11.487-.889-1.297-1.931-2.581-3.102-3.615-1.183-1.104.25-3.011 1.631-2.17v.007z" fill="#E0320B"/><path d="M334.723 339.793l7.54-42.819 9.645 6.883M342.262 296.973s-14.461-70.884 6.977-141.968" stroke="#E0320B" stroke-width="5.019" stroke-linecap="round" stroke-linejoin="round"/><path fill-rule="evenodd" clip-rule="evenodd" d="M364.918 249.333c-7.996.865-15.498 2.544-19.449 3.957-3.238 1.158-6.196 2.058-6.196 2.058l-1.929-12.586s2.851-.849 3.948-1.242c5.15-1.842 13.675-3.678 22.293-4.61 8.445-.913 18.14-1.095 25.164 1.128h.003c9.221 2.924 15.356 7.659 19.225 13.106 3.82 5.379 5.119 11.011 5.451 15.311.557 7.219-1.857 16.488-9.59 23.377a6.206 6.206 0 01-8.785-.527 6.264 6.264 0 01.525-8.819c4.419-3.937 5.741-9.178 5.441-13.067v-.001c-.207-2.679-.999-5.956-3.176-9.021-2.129-2.997-5.897-6.243-12.836-8.443m-20.089-.621c8.166-.883 15.668-.777 20.086.62z" fill="#E0320B"/><path d="M406.154 289.994l-.012-.026c-.179-.398-4.452-9.811-15.158-9.958h-.275c-10.221 0-11.238 8.366-11.315 9.226v.103l.071 1.535-1.522.134c-8.053.713-14.666 4.245-15.395 4.643l-.071.038c-1.771.867-17.275 8.918-16.827 25.285.435 15.756 13.118 17.843 14.563 18.029l.659.084.403.526c1.158 1.503 2.488 2.613 3.959 3.307a9.032 9.032 0 003.863.854c2.072 0 3.882-.655 5.04-1.201l.768-.366.729.43c2.379 1.406 5.225 2.01 8.442 1.805 7.087-.443 15.273-4.11 15.03-12.97-.115-4.251-2.699-8.315-4.227-10.357l-1.049-1.4 1.484-.924a9.515 9.515 0 001.522-1.162c3.108-2.967 4.406-6.582 3.844-10.742l-.141-1.04.889-.546c8.73-5.349 5.456-13.683 4.714-15.301l.012-.006z" fill="#fff"/><path d="M396.816 299.284s7.828 10.01-.422 17.875c-.665.636-1.433 1.137-2.251 1.561-2.834 1.457-10.47 5.579-13.739 9.265" stroke="#E0320B" stroke-width="5.019" stroke-linecap="round" stroke-linejoin="round"/><path d="M392.692 319.484s5.597 5.792 5.769 12.007c.154 5.605-3.895 11.647-14.429 12.309-10.534.661-15.049-7.75-15.382-16.566M374.881 341.43s-15.183 10.126-18.401-19.101" stroke="#E0320B" stroke-width="5.019" stroke-linecap="round" stroke-linejoin="round"/><path d="M361.054 338.439s-14.308-.874-14.762-17.484c-.454-16.61 16.514-24.713 16.514-24.713s10.253-5.766 20.953-4.546" stroke="#E0320B" stroke-width="5.019" stroke-linecap="round" stroke-linejoin="round"/><path d="M380.021 289.319s.48-8.809 10.944-8.661c10.463.147 14.582 9.579 14.582 9.579s4.855 9.567-5.372 15.044" stroke="#E0320B" stroke-width="5.019" stroke-linecap="round" stroke-linejoin="round"/><path d="M385.431 309.397c-1.996 1.246-3.883 3.063-5.13 5.04a2.259 2.259 0 01-3.127.687c-1.28-.796-1.395-2.715-.224-3.666a19.789 19.789 0 015.609-3.454c1.017-.321 2.916-1.509 3.454.083a1.147 1.147 0 01-.582 1.317v-.007zM380.592 305.07c-2.744 1.566-5.302 3.871-7.099 6.452-2.028 2.626-5.705-.635-3.352-2.979a25.42 25.42 0 017.036-4.597c.85-.379 1.669-.693 2.616-.982.594-.18 1.221.16 1.4.757a1.137 1.137 0 01-.601 1.349zM372.515 303.4c-2.226 1.342-4.317 3.307-5.731 5.47-1.995 2.723-5.788-.565-3.389-2.947a21.494 21.494 0 016.082-3.839c1.049-.315 3.051-1.657 3.627-.013a1.148 1.148 0 01-.589 1.329z" fill="#E0320B"/><path d="M384.205 324.685s4.573 3.377 1.241 11.467M179.768 90.387l18.388 8.591 14.173-16.206 13.073 15.372 17.3-6.472 11.679 14.729 18.049-5.907 11.468 14.998 17.268-6.33 10.963 13.387 17.627-6.562 11.768 14.755 17.026-7.416 10.38 14.189" stroke="#E0320B" stroke-width="5.019" stroke-linecap="round" stroke-linejoin="round"/><path d="M90.71 32.295l-6.356-19.763c-.827-2.856 3.27-4.192 4.27-1.38.026.086.052.179.07.26L92.638 31.8c.22 1.213-1.533 1.67-1.921.5l-.007-.005zM76.574 39.402L63.663 22.997a2.255 2.255 0 01.37-3.16c1.038-.834 2.616-.55 3.306.594l10.868 17.83c.632 1.06-.857 2.11-1.627 1.14l-.006.001zM67.123 50.346L48.089 40.79c-2.606-1.388-.675-5.292 2.004-4.025.395.197 17.671 11.655 18.015 11.857 1.023.685.12 2.272-.992 1.724l.007-.002zM106.457 30.96l.941-20.883c.222-2.964 4.522-2.775 4.478.203a1.704 1.704 0 01-.027.269l-3.417 20.622c-.211 1.215-2.018 1.026-1.975-.211zM120.27 35.14l9.937-18.89c1.442-2.584 5.283-.562 3.962 2.1-.204.392-11.999 17.476-12.208 17.816-.705 1.013-2.268.07-1.699-1.032l.008.005z" fill="#E0320B"/></svg>