<svg viewBox="0 0 154 40" fill="none" xmlns="http://www.w3.org/2000/svg"><path d="M24.195 32.54c.726.556 1.648.846 2.593.846.94 0 1.864-.29 2.594-.846l2.221-1.692c1.1-.837 2.447-1.249 3.776-1.255h.01c1.327.006 2.674.413 3.776 1.255h.002l2.22 1.693c.727.555 1.65.845 2.594.845.94 0 1.864-.29 2.594-.846l2.221-1.692c1.1-.837 2.447-1.249 3.776-1.255l.01 2c-.933.004-1.848.294-2.574.846l-2.22 1.692c-1.11.844-2.467 1.255-3.807 1.255-1.343 0-2.701-.41-3.807-1.256l-2.22-1.691-.002-.001c-.722-.552-1.635-.84-2.568-.845-.93.005-1.845.295-2.57.846l-2.22 1.692c-1.108.844-2.466 1.255-3.806 1.255-1.342 0-2.7-.41-3.807-1.256l-2.221-1.692c-.723-.552-1.635-.84-2.568-.845-.931.005-1.845.295-2.57.846l-2.22 1.692c-1.108.844-2.466 1.255-3.807 1.255-1.342 0-2.7-.41-3.807-1.256l-2.22-1.692c-.725-.553-1.64-.84-2.574-.845l.01-2c1.327.006 2.675.413 3.777 1.255l2.221 1.693c.727.555 1.649.845 2.593.845.941 0 1.864-.29 2.595-.846l2.22-1.692c1.101-.837 2.448-1.249 3.777-1.255 1.352 0 2.71.433 3.787 1.255l2.221 1.693zm.005-11.842c.727.555 1.65.845 2.594.845.94 0 1.864-.29 2.594-.846l2.221-1.692c1.1-.837 2.447-1.248 3.776-1.255h.01c1.327.007 2.674.413 3.776 1.255h.001l2.222 1.693c.726.555 1.648.845 2.593.845.94 0 1.863-.29 2.594-.846l2.22-1.692c1.101-.837 2.448-1.248 3.777-1.255l.01 2c-.933.005-1.848.294-2.574.846l-2.221 1.692c-1.108.844-2.466 1.255-3.806 1.255-1.343 0-2.701-.41-3.807-1.256l-2.22-1.691h-.002c-.722-.553-1.635-.84-2.568-.846-.93.006-1.845.295-2.57.846l-2.22 1.692c-1.108.844-2.466 1.255-3.806 1.255-1.343 0-2.7-.41-3.807-1.256l-2.221-1.692c-.723-.552-1.635-.84-2.568-.845-.931.006-1.845.295-2.57.846l-2.22 1.692c-1.109.844-2.466 1.255-3.807 1.255-1.342 0-2.7-.41-3.807-1.256l-2.221-1.692c-.724-.553-1.638-.84-2.573-.845l.01-2c1.327.007 2.674.414 3.776 1.255l2.222 1.693c.726.555 1.649.845 2.593.845.941 0 1.864-.29 2.595-.846l2.22-1.692c1.1-.837 2.448-1.248 3.777-1.255 1.352 0 2.71.433 3.786 1.256l2.222 1.692zm0-11.77c.727.555 1.65.845 2.594.845.94 0 1.864-.29 2.594-.846l2.221-1.692c1.1-.837 2.447-1.248 3.776-1.255h.01c1.327.007 2.674.414 3.776 1.255h.001l2.222 1.693c.726.555 1.648.845 2.593.845.94 0 1.863-.29 2.594-.846l2.22-1.692c1.101-.837 2.448-1.248 3.777-1.255l.01 2c-.933.005-1.848.294-2.574.846l-2.221 1.692c-1.108.844-2.466 1.255-3.806 1.255-1.343 0-2.701-.41-3.807-1.256l-2.22-1.691h-.002c-.722-.553-1.635-.84-2.568-.846-.93.006-1.845.295-2.57.846l-2.22 1.692c-1.108.844-2.466 1.255-3.806 1.255-1.343 0-2.7-.41-3.807-1.256l-2.221-1.692c-.723-.552-1.635-.84-2.568-.845-.931.006-1.845.295-2.57.846l-2.22 1.692c-1.109.844-2.466 1.255-3.807 1.255-1.342 0-2.7-.41-3.807-1.256L3.573 8.825C2.849 8.272 1.935 7.985 1 7.98l.01-2c1.327.007 2.674.414 3.776 1.255l2.222 1.693c.726.555 1.649.845 2.593.845.941 0 1.864-.29 2.595-.846l2.22-1.692c1.1-.837 2.448-1.248 3.777-1.255 1.352 0 2.71.433 3.786 1.256l2.222 1.692zM124.621 32.54c.726.556 1.648.846 2.593.846.941 0 1.864-.29 2.594-.846l2.221-1.692c1.1-.837 2.447-1.249 3.776-1.255h.01c1.327.006 2.674.413 3.776 1.255h.001l2.221 1.693c.727.555 1.649.845 2.594.845.94 0 1.863-.29 2.594-.846l2.221-1.692c1.1-.837 2.447-1.249 3.776-1.255l.01 2c-.933.004-1.848.294-2.574.846l-2.221 1.692c-1.108.844-2.466 1.255-3.806 1.255-1.343 0-2.701-.41-3.807-1.256l-2.221-1.691-.001-.001c-.722-.552-1.635-.84-2.568-.845-.931.005-1.845.295-2.569.846l-2.221 1.692c-1.108.844-2.466 1.255-3.806 1.255-1.343 0-2.701-.41-3.807-1.256l-2.221-1.692c-.723-.552-1.636-.84-2.568-.845-.931.005-1.845.295-2.57.846l-2.22 1.692c-1.109.844-2.467 1.255-3.807 1.255-1.342 0-2.701-.41-3.807-1.256l-2.221-1.692c-.724-.553-1.639-.84-2.573-.845l.01-2c1.327.006 2.674.413 3.776 1.255l2.222 1.693c.726.555 1.649.845 2.593.845.941 0 1.864-.29 2.595-.846l2.221-1.692c1.1-.837 2.446-1.249 3.776-1.255 1.352 0 2.709.433 3.786 1.255l2.222 1.693zm.006-11.842c.726.555 1.648.845 2.593.845.94 0 1.864-.29 2.594-.846l2.221-1.692c1.1-.837 2.447-1.248 3.776-1.255h.01c1.327.007 2.674.413 3.776 1.255h.001l2.221 1.693c.727.555 1.649.845 2.593.845.941 0 1.864-.29 2.595-.846l2.221-1.692c1.1-.837 2.447-1.248 3.776-1.255l.01 2c-.933.005-1.849.294-2.574.846l-2.221 1.692c-1.108.844-2.466 1.255-3.807 1.255-1.342 0-2.701-.41-3.807-1.256l-2.22-1.691h-.001c-.723-.553-1.635-.84-2.568-.846-.931.006-1.845.295-2.569.846l-2.221 1.692c-1.108.844-2.466 1.255-3.806 1.255-1.343 0-2.701-.41-3.807-1.256l-2.222-1.692c-.722-.552-1.635-.84-2.568-.845-.931.006-1.844.295-2.569.846l-2.221 1.692c-1.108.844-2.466 1.255-3.806 1.255-1.342 0-2.701-.41-3.807-1.256l-2.221-1.692c-.724-.553-1.639-.84-2.573-.845l.01-2c1.327.007 2.674.414 3.776 1.255l2.222 1.693c.726.555 1.648.845 2.593.845.941 0 1.864-.29 2.594-.846l2.221-1.692c1.101-.837 2.447-1.248 3.776-1.255 1.353 0 2.71.433 3.787 1.256l2.222 1.692zm0-11.77c.726.555 1.648.845 2.593.845.94 0 1.864-.29 2.594-.846l2.221-1.692c1.1-.837 2.447-1.248 3.776-1.255h.01c1.327.007 2.674.414 3.776 1.255h.001l2.221 1.693c.727.555 1.649.845 2.593.845.941 0 1.864-.29 2.595-.846l2.221-1.692c1.1-.837 2.447-1.248 3.776-1.255l.01 2c-.933.005-1.849.294-2.574.846l-2.221 1.692c-1.108.844-2.466 1.255-3.807 1.255-1.342 0-2.701-.41-3.807-1.256l-2.22-1.691h-.001c-.723-.553-1.635-.84-2.568-.846-.931.006-1.845.295-2.569.846l-2.221 1.692c-1.108.844-2.466 1.255-3.806 1.255-1.343 0-2.701-.41-3.807-1.256l-2.222-1.692c-.722-.552-1.635-.84-2.568-.845-.931.006-1.844.295-2.569.846l-2.221 1.692c-1.108.844-2.466 1.255-3.806 1.255-1.342 0-2.701-.41-3.807-1.256l-2.221-1.692c-.724-.553-1.639-.84-2.573-.845l.01-2c1.327.007 2.674.414 3.776 1.255l2.222 1.693c.726.555 1.648.845 2.593.845.941 0 1.864-.29 2.594-.846l2.221-1.692c1.101-.837 2.447-1.248 3.776-1.255 1.353 0 2.71.433 3.787 1.256l2.222 1.692z"/><path fill-rule="evenodd" clip-rule="evenodd" d="M68.066 37.556c2.456 1.623 5.42 2.444 8.81 2.444 3.387 0 6.356-.821 8.812-2.44 2.457-1.619 4.361-3.978 5.663-7.005 1.273-2.966 1.92-6.596 1.92-10.65 0-4.055-.647-7.608-1.92-10.558-1.302-3.006-3.206-5.34-5.667-6.94C83.224.81 80.264 0 76.877 0 73.49 0 70.53.81 68.07 2.408c-2.461 1.598-4.365 3.933-5.667 6.94-1.274 2.945-1.92 6.458-1.92 10.557s.646 7.684 1.92 10.646c1.298 3.027 3.206 5.386 5.663 7.005zm15.445-23.96c0 1.643-1.012 2.979-2.26 2.979-1.25 0-2.26-1.335-2.26-2.978 0-1.643 1.01-2.979 2.26-2.979 1.248 0 2.26 1.336 2.26 2.979zm-11.007 2.979c1.25 0 2.26-1.335 2.26-2.978 0-1.643-1.01-2.979-2.26-2.979-1.249 0-2.26 1.336-2.26 2.979s1.011 2.978 2.26 2.978zm-2.98 9.8a10.378 10.378 0 007.35 3.01c2.777 0 5.385-1.071 7.35-3.01a10.135 10.135 0 003.046-7.263h-2.1a8.09 8.09 0 01-2.428 5.798 8.308 8.308 0 01-5.868 2.4 8.29 8.29 0 01-5.867-2.4 8.1 8.1 0 01-2.428-5.798h-2.1c0 2.743 1.085 5.32 3.046 7.263z" /></svg>